<svg width="14" height="14" viewBox="0 0 14 14" fill="none" xmlns="http://www.w3.org/2000/svg">
<path d="M5.52372 5.52461L8.47539 8.47628C8.85456 8.09711 9.08789 7.57794 9.08789 7.00044C9.08789 5.84544 8.15456 4.91211 6.99956 4.91211C6.42206 4.91211 5.90289 5.14544 5.52372 5.52461Z" stroke="#D0D5DA" stroke-linecap="round" stroke-linejoin="round"/>
<path d="M3.60412 3.36578C4.62495 2.59578 5.79161 2.17578 6.99911 2.17578C9.05828 2.17578 10.9774 3.38911 12.3133 5.48911C12.8383 6.31161 12.8383 7.69411 12.3133 8.51661C11.8524 9.23995 11.3158 9.86411 10.7324 10.3658" stroke="#D0D5DA" stroke-linecap="round" stroke-linejoin="round"/>
<path d="M9.08789 11.3926C8.42289 11.6726 7.71706 11.8243 6.99956 11.8243C4.94039 11.8243 3.02122 10.611 1.68539 8.51098C1.16039 7.68848 1.16039 6.30598 1.68539 5.48348C1.87789 5.18014 2.08789 4.89431 2.30372 4.62598" stroke="#D0D5DA" stroke-linecap="round" stroke-linejoin="round"/>
<path d="M4.95266 7.4082C5.10432 8.2307 5.77516 8.90154 6.59766 9.0532" stroke="#D0D5DA" stroke-linecap="round" stroke-linejoin="round"/>
<path d="M8.47648 8.47559L12.834 12.8331" stroke="#D0D5DA" stroke-linecap="round" stroke-linejoin="round"/>
<path d="M1.16594 1.16699L5.52344 5.52449" stroke="#D0D5DA" stroke-linecap="round" stroke-linejoin="round"/>
</svg>
