<svg width="32" height="32" viewBox="0 0 32 32" fill="none" xmlns="http://www.w3.org/2000/svg">
<path d="M15.9993 29.3337C23.3631 29.3337 29.3327 23.3641 29.3327 16.0003C29.3327 8.63653 23.3631 2.66699 15.9993 2.66699C8.63555 2.66699 2.66602 8.63653 2.66602 16.0003C2.66602 23.3641 8.63555 29.3337 15.9993 29.3337Z" stroke="#1A2E35" stroke-width="1.4" stroke-linecap="round" stroke-linejoin="round"/>
<path d="M14.2094 18.9C14.2094 18.3133 14.336 17.7667 14.5894 17.26C14.8427 16.7533 15.1494 16.32 15.5094 15.96C15.8694 15.6 16.2294 15.26 16.5894 14.94C16.9494 14.6067 17.256 14.2467 17.5094 13.86C17.7627 13.46 17.8894 13.04 17.8894 12.6C17.8894 11.9333 17.656 11.4267 17.1894 11.08C16.736 10.72 16.1427 10.54 15.4094 10.54C13.9427 10.54 13.0027 11.1867 12.5894 12.48L11.0094 11.6C11.3427 10.6667 11.9094 9.96 12.7094 9.48C13.5094 8.98667 14.416 8.74 15.4294 8.74C16.616 8.74 17.6294 9.07333 18.4694 9.74C19.3227 10.4067 19.7494 11.3333 19.7494 12.52C19.7494 13.08 19.6227 13.6067 19.3694 14.1C19.116 14.5933 18.8094 15.02 18.4494 15.38C18.0894 15.74 17.7294 16.0933 17.3694 16.44C17.0094 16.7733 16.7027 17.1533 16.4494 17.58C16.196 17.9933 16.0694 18.4333 16.0694 18.9H14.2094ZM15.1294 23.22C14.7694 23.22 14.4627 23.0933 14.2094 22.84C13.956 22.5867 13.8294 22.28 13.8294 21.92C13.8294 21.56 13.956 21.2533 14.2094 21C14.4627 20.7467 14.7694 20.62 15.1294 20.62C15.5027 20.62 15.8094 20.7467 16.0494 21C16.3027 21.2533 16.4294 21.56 16.4294 21.92C16.4294 22.28 16.3027 22.5867 16.0494 22.84C15.8094 23.0933 15.5027 23.22 15.1294 23.22Z" fill="#1A2E35"/>
</svg>
