<svg width="173" height="45" viewBox="0 0 173 45" fill="none" xmlns="http://www.w3.org/2000/svg">
<path d="M23.2031 34.5938C23.0312 35.7188 22.6406 36.6953 22.0312 37.5234C21.4375 38.3672 20.7109 39.0547 19.8516 39.5859C19.0078 40.1328 18.0703 40.5391 17.0391 40.8047C16.0234 41.0703 15 41.2031 13.9688 41.2031C13.2344 41.2031 12.4766 41.1094 11.6953 40.9219C10.9141 40.7344 10.125 40.5312 9.32812 40.3125C8.54688 40.0938 7.77344 39.8906 7.00781 39.7031C6.25781 39.5156 5.53906 39.4219 4.85156 39.4219C4.52344 39.4219 4.17188 39.4609 3.79688 39.5391C3.4375 39.6172 3.07812 39.7266 2.71875 39.8672C2.375 40.0078 2.05469 40.1797 1.75781 40.3828C1.46094 40.6016 1.22656 40.8438 1.05469 41.1094L0.679688 40.9219C0.742188 40.2656 0.90625 39.6641 1.17188 39.1172C1.45312 38.5703 1.80469 38.0938 2.22656 37.6875C2.66406 37.2812 3.15625 36.9609 3.70312 36.7266C4.26562 36.5078 4.875 36.3984 5.53125 36.3984C5.6875 36.3984 5.83594 36.3984 5.97656 36.3984C6.13281 36.3984 6.28906 36.4062 6.44531 36.4219C5.78906 34.8594 5.24219 33.1484 4.80469 31.2891C4.38281 29.4141 4.04688 27.5078 3.79688 25.5703C3.54688 23.6172 3.36719 21.6797 3.25781 19.7578C3.16406 17.8359 3.11719 16.0391 3.11719 14.3672C3.11719 13.8047 3.125 13.1484 3.14062 12.3984C3.17188 11.6484 3.22656 10.8594 3.30469 10.0312C3.38281 9.1875 3.49219 8.34375 3.63281 7.5C3.78906 6.65625 4 5.85938 4.26562 5.10938C4.53125 4.35938 4.85938 3.6875 5.25 3.09375C5.64062 2.5 6.11719 2.03906 6.67969 1.71094C6.97656 1.53906 7.28125 1.38281 7.59375 1.24219C7.92188 1.10156 8.25781 1.03125 8.60156 1.03125C8.82031 1.03125 9.00781 1.08594 9.16406 1.19531C9.33594 1.28906 9.42188 1.46094 9.42188 1.71094C9.42188 1.85156 9.39844 1.98438 9.35156 2.10938C9.32031 2.21875 9.28125 2.33594 9.23438 2.46094C8.98438 3.02344 8.72656 3.57031 8.46094 4.10156C8.21094 4.63281 8 5.17969 7.82812 5.74219C7.42188 7.10156 7.08594 8.57812 6.82031 10.1719C6.57031 11.7656 6.38281 13.4297 6.25781 15.1641C6.13281 16.8984 6.0625 18.6875 6.04688 20.5312C6.03125 22.3594 6.0625 24.1875 6.14062 26.0156C6.23438 27.8281 6.35938 29.625 6.51562 31.4062C6.67188 33.1719 6.85938 34.8672 7.07812 36.4922C7.73438 36.5859 8.39844 36.7031 9.07031 36.8438C9.75781 37 10.4453 37.1484 11.1328 37.2891C11.8359 37.4453 12.5469 37.5781 13.2656 37.6875C13.9844 37.7969 14.7188 37.8516 15.4688 37.8516C16.1719 37.8516 16.875 37.7891 17.5781 37.6641C18.2969 37.5547 18.9766 37.3672 19.6172 37.1016C20.2734 36.8359 20.875 36.4844 21.4219 36.0469C21.9688 35.6094 22.4297 35.0703 22.8047 34.4297L23.2031 34.5938ZM37.1016 29.6484C36.8359 30.1953 36.4766 30.7188 36.0234 31.2188C35.5703 31.7188 35.0625 32.1719 34.5 32.5781C33.9375 32.9688 33.3438 33.2812 32.7188 33.5156C32.0938 33.75 31.4766 33.8672 30.8672 33.8672C30.0234 33.8672 29.3203 33.6094 28.7578 33.0938C28.2109 32.5938 27.8047 31.9844 27.5391 31.2656C26.9297 31.875 26.2578 32.3828 25.5234 32.7891C24.7891 33.1797 23.9766 33.375 23.0859 33.375C22.2891 33.375 21.5781 33.2344 20.9531 32.9531C20.3438 32.6562 19.8359 32.2578 19.4297 31.7578C19.0234 31.2578 18.7109 30.6797 18.4922 30.0234C18.2891 29.3672 18.1875 28.6641 18.1875 27.9141C18.1875 27.0703 18.3047 26.25 18.5391 25.4531C18.7734 24.6406 19.1016 23.875 19.5234 23.1562C19.9453 22.4219 20.4453 21.7422 21.0234 21.1172C21.6016 20.4922 22.2266 19.9375 22.8984 19.4531L23.1797 19.6641C22.5234 20.6016 22 21.6406 21.6094 22.7812C21.2188 23.9062 21.0234 25.0547 21.0234 26.2266C21.0234 26.7266 21.0781 27.2578 21.1875 27.8203C21.2969 28.3828 21.4766 28.9062 21.7266 29.3906C21.9766 29.875 22.3047 30.2812 22.7109 30.6094C23.1328 30.9219 23.6562 31.0781 24.2812 31.0781C24.8125 31.0781 25.3203 30.9922 25.8047 30.8203C26.2891 30.6328 26.7578 30.3828 27.2109 30.0703C27.1797 29.8828 27.1562 29.7031 27.1406 29.5312C27.125 29.3438 27.1172 29.1562 27.1172 28.9688C27.1172 28.2188 27.2266 27.4062 27.4453 26.5312C27.6641 25.6562 27.9531 24.7891 28.3125 23.9297C28.6719 23.0547 29.0781 22.2266 29.5312 21.4453C30 20.6484 30.4766 19.9688 30.9609 19.4062L31.2422 19.6172C30.8828 20.8203 30.5859 22.0625 30.3516 23.3438C30.1172 24.625 30 25.8906 30 27.1406C30 27.7031 30.0312 28.25 30.0938 28.7812C30.1719 29.2969 30.3203 29.7656 30.5391 30.1875C30.7734 30.5938 31.0938 30.9219 31.5 31.1719C31.9062 31.4062 32.4453 31.5234 33.1172 31.5234C33.8672 31.5234 34.5703 31.3359 35.2266 30.9609C35.8828 30.5703 36.4609 30.1016 36.9609 29.5547L37.1016 29.6484ZM55.9688 29.6484C55.6719 30.2109 55.3516 30.75 55.0078 31.2656C54.6797 31.7812 54.3047 32.2344 53.8828 32.625C53.4609 33.0156 52.9844 33.3281 52.4531 33.5625C51.9219 33.7969 51.3125 33.9141 50.625 33.9141C49.8438 33.9141 49.1719 33.7188 48.6094 33.3281C48.0469 32.9531 47.5625 32.4531 47.1562 31.8281C46.7656 31.1875 46.4453 30.4609 46.1953 29.6484C45.9609 28.8359 45.7656 28.0078 45.6094 27.1641C45.4531 26.3203 45.3359 25.4922 45.2578 24.6797C45.1797 23.8516 45.1094 23.1094 45.0469 22.4531C44.75 22.6875 44.3906 23.1406 43.9688 23.8125C43.5469 24.4688 43.1172 25.2422 42.6797 26.1328C42.2422 27.0234 41.8203 27.9922 41.4141 29.0391C41.0234 30.0859 40.7031 31.1172 40.4531 32.1328C40.4062 32.3516 40.3281 32.5781 40.2188 32.8125C40.125 33.0469 40 33.2578 39.8438 33.4453C39.7031 33.6484 39.5312 33.8125 39.3281 33.9375C39.125 34.0781 38.8984 34.1484 38.6484 34.1484C38.2422 34.1484 37.9453 34.0078 37.7578 33.7266C37.5859 33.4453 37.4609 33.125 37.3828 32.7656C36.9297 30.7812 36.6094 28.8828 36.4219 27.0703C36.25 25.2578 36.1641 23.4453 36.1641 21.6328C36.1641 21.1953 36.2344 20.8203 36.375 20.5078C36.5312 20.1797 36.7344 19.9141 36.9844 19.7109C37.2344 19.4922 37.5312 19.3359 37.875 19.2422C38.2188 19.1328 38.5781 19.0781 38.9531 19.0781C39 19.0781 39.0703 19.0781 39.1641 19.0781C39.2734 19.0781 39.375 19.0938 39.4688 19.125C39.5625 19.1406 39.6406 19.1719 39.7031 19.2188C39.7656 19.2656 39.7891 19.3281 39.7734 19.4062C39.3672 21.4531 39.1719 23.5391 39.1875 25.6641C39.2031 27.7734 39.3125 29.8047 39.5156 31.7578C39.6875 30.9766 39.9375 30.0938 40.2656 29.1094C40.6094 28.1094 41 27.1094 41.4375 26.1094C41.8906 25.0938 42.375 24.1328 42.8906 23.2266C43.4219 22.3047 43.9609 21.5312 44.5078 20.9062C44.7734 20.6094 45.0391 20.3594 45.3047 20.1562C45.5859 19.9375 45.9297 19.8281 46.3359 19.8281C46.5703 19.8281 46.7656 19.875 46.9219 19.9688C47.0781 20.0625 47.2031 20.1797 47.2969 20.3203C47.4062 20.4609 47.4844 20.625 47.5312 20.8125C47.5938 20.9844 47.6406 21.1562 47.6719 21.3281C47.75 21.7812 47.8281 22.3672 47.9062 23.0859C47.9844 23.8047 48.0781 24.5703 48.1875 25.3828C48.3125 26.1953 48.4609 27.0156 48.6328 27.8438C48.8047 28.6562 49.0234 29.3984 49.2891 30.0703C49.5547 30.7266 49.875 31.2656 50.25 31.6875C50.625 32.1094 51.0703 32.3203 51.5859 32.3203C52.0078 32.3203 52.4141 32.2422 52.8047 32.0859C53.2109 31.9141 53.5938 31.7031 53.9531 31.4531C54.3125 31.1875 54.6484 30.8906 54.9609 30.5625C55.2734 30.2188 55.5547 29.8828 55.8047 29.5547L55.9688 29.6484ZM69.6328 29.6484C69.2266 30.3203 68.6953 30.9219 68.0391 31.4531C67.3984 31.9688 66.6875 32.4141 65.9062 32.7891C65.1406 33.1484 64.3359 33.4219 63.4922 33.6094C62.6641 33.8125 61.8672 33.9141 61.1016 33.9141C60.1641 33.9141 59.2891 33.7734 58.4766 33.4922C57.6797 33.2109 56.9766 32.8047 56.3672 32.2734C55.7734 31.7266 55.3047 31.0781 54.9609 30.3281C54.6328 29.5625 54.4688 28.6953 54.4688 27.7266C54.4688 26.6328 54.6641 25.5625 55.0547 24.5156C55.4609 23.4688 56.0156 22.5391 56.7188 21.7266C57.4375 20.9141 58.2812 20.2656 59.25 19.7812C60.2344 19.2812 61.2969 19.0312 62.4375 19.0312C62.8125 19.0312 63.1875 19.0703 63.5625 19.1484C63.9375 19.2266 64.2812 19.3594 64.5938 19.5469C64.9062 19.7188 65.1562 19.9531 65.3438 20.25C65.5469 20.5469 65.6484 20.9219 65.6484 21.375C65.6484 21.8281 65.5312 22.2266 65.2969 22.5703C65.0625 22.8984 64.7656 23.1719 64.4062 23.3906C64.0469 23.6094 63.6562 23.7891 63.2344 23.9297C62.8281 24.0547 62.4375 24.1484 62.0625 24.2109V23.8828C62.2812 23.8203 62.5156 23.7344 62.7656 23.625C63.0312 23.5156 63.2734 23.375 63.4922 23.2031C63.7109 23.0312 63.8906 22.8281 64.0312 22.5938C64.1875 22.3594 64.2656 22.1016 64.2656 21.8203C64.2656 21.6016 64.2109 21.4219 64.1016 21.2812C64.0078 21.125 63.8828 21 63.7266 20.9062C63.5859 20.8125 63.4219 20.7422 63.2344 20.6953C63.0469 20.6484 62.8594 20.625 62.6719 20.625C61.875 20.625 61.1562 20.8047 60.5156 21.1641C59.8906 21.5078 59.3594 21.9688 58.9219 22.5469C58.4844 23.125 58.1484 23.7734 57.9141 24.4922C57.6953 25.2109 57.5859 25.9375 57.5859 26.6719C57.5859 27.5156 57.7109 28.2734 57.9609 28.9453C58.2266 29.6016 58.5938 30.1641 59.0625 30.6328C59.5312 31.1016 60.1016 31.4609 60.7734 31.7109C61.4453 31.9609 62.1953 32.0859 63.0234 32.0859C63.5547 32.0859 64.1172 32.0312 64.7109 31.9219C65.3203 31.7969 65.9062 31.625 66.4688 31.4062C67.0469 31.1875 67.5938 30.9219 68.1094 30.6094C68.625 30.2969 69.0703 29.9453 69.4453 29.5547L69.6328 29.6484ZM88.7344 29.5547C88.4688 30.1172 88.1406 30.6797 87.75 31.2422C87.375 31.7891 86.9531 32.2891 86.4844 32.7422C86.0156 33.1797 85.5 33.5391 84.9375 33.8203C84.375 34.1016 83.7734 34.2422 83.1328 34.2422C82.4297 34.2422 81.8203 34.0547 81.3047 33.6797C80.7891 33.3203 80.3516 32.8438 79.9922 32.25C79.6328 31.6406 79.3359 30.9453 79.1016 30.1641C78.8672 29.3828 78.6719 28.5781 78.5156 27.75C78.3594 26.9219 78.2266 26.0938 78.1172 25.2656C78.0234 24.4375 77.9297 23.6797 77.8359 22.9922C77.3359 23.6484 76.8828 24.3438 76.4766 25.0781C76.0703 25.8125 75.6797 26.5781 75.3047 27.375C74.9297 28.1562 74.5625 28.9531 74.2031 29.7656C73.8438 30.5781 73.4609 31.3828 73.0547 32.1797C72.9609 32.3516 72.8672 32.5391 72.7734 32.7422C72.6797 32.9297 72.5703 33.1016 72.4453 33.2578C72.3203 33.4297 72.1719 33.5703 72 33.6797C71.8281 33.7891 71.625 33.8438 71.3906 33.8438C71.1719 33.8438 70.9844 33.8047 70.8281 33.7266C70.6875 33.6484 70.5625 33.5469 70.4531 33.4219C70.3594 33.3125 70.2812 33.1875 70.2188 33.0469C70.1719 32.9062 70.1328 32.7734 70.1016 32.6484C69.9141 31.9766 69.7422 31.1328 69.5859 30.1172C69.4453 29.1016 69.3203 28.0156 69.2109 26.8594C69.1016 25.7031 69.0156 24.5312 68.9531 23.3438C68.9062 22.1406 68.8828 21.0312 68.8828 20.0156C68.8828 18.5625 68.9766 17.0703 69.1641 15.5391C69.3516 13.9922 69.6406 12.4844 70.0312 11.0156C70.4375 9.54688 70.9453 8.16406 71.5547 6.86719C72.1797 5.55469 72.9141 4.40625 73.7578 3.42188C74.6016 2.4375 75.5625 1.65625 76.6406 1.07812C77.7344 0.5 78.9531 0.210938 80.2969 0.210938C81.1875 0.210938 81.8906 0.476562 82.4062 1.00781C82.9219 1.52344 83.1797 2.26563 83.1797 3.23438C83.1797 4.6875 82.9219 6.08594 82.4062 7.42969C81.9062 8.75781 81.2578 10.0312 80.4609 11.25C79.6797 12.4688 78.8047 13.625 77.8359 14.7188C76.8828 15.7969 75.9609 16.7969 75.0703 17.7188L74.7656 17.4844C75.1562 17.0469 75.5703 16.5078 76.0078 15.8672C76.4609 15.2109 76.8984 14.5078 77.3203 13.7578C77.7578 12.9922 78.1719 12.1953 78.5625 11.3672C78.9531 10.5234 79.2969 9.69531 79.5938 8.88281C79.8906 8.07031 80.125 7.28906 80.2969 6.53906C80.4688 5.77344 80.5547 5.07813 80.5547 4.45312C80.5547 4.125 80.5234 3.8125 80.4609 3.51562C80.3984 3.21875 80.2891 2.96094 80.1328 2.74219C79.9766 2.50781 79.7734 2.32812 79.5234 2.20312C79.2891 2.0625 79 1.99219 78.6562 1.99219C77.9688 1.99219 77.3203 2.25781 76.7109 2.78906C76.1172 3.32031 75.5703 4.03906 75.0703 4.94531C74.5703 5.83594 74.125 6.875 73.7344 8.0625C73.3594 9.25 73.0312 10.4922 72.75 11.7891C72.4844 13.0859 72.2812 14.3984 72.1406 15.7266C72 17.0547 71.9297 18.3203 71.9297 19.5234C71.9297 20.3359 71.9297 21.1562 71.9297 21.9844C71.9297 22.8125 71.9453 23.6797 71.9766 24.5859C72.0234 25.4922 72.0938 26.4531 72.1875 27.4688C72.2969 28.4844 72.4453 29.5859 72.6328 30.7734C73.3203 28.9922 74.0469 27.25 74.8125 25.5469C75.5781 23.8281 76.4062 22.2578 77.2969 20.8359C77.4219 20.6328 77.5469 20.4297 77.6719 20.2266C77.8125 20.0234 77.9609 19.8438 78.1172 19.6875C78.2734 19.5156 78.4453 19.375 78.6328 19.2656C78.8203 19.1562 79.0234 19.1016 79.2422 19.1016C79.5078 19.1016 79.7188 19.1797 79.875 19.3359C80.0312 19.4766 80.1562 19.6562 80.25 19.875C80.3438 20.0938 80.4062 20.3281 80.4375 20.5781C80.4844 20.8281 80.5234 21.0547 80.5547 21.2578C80.6172 21.7109 80.6875 22.2969 80.7656 23.0156C80.8438 23.7344 80.9375 24.5078 81.0469 25.3359C81.1562 26.1484 81.2891 26.9688 81.4453 27.7969C81.6172 28.625 81.8281 29.375 82.0781 30.0469C82.3438 30.7031 82.6562 31.2422 83.0156 31.6641C83.375 32.0859 83.8047 32.2969 84.3047 32.2969C84.7109 32.2969 85.1172 32.2109 85.5234 32.0391C85.9297 31.8672 86.3203 31.6484 86.6953 31.3828C87.0703 31.1172 87.4141 30.8125 87.7266 30.4688C88.0547 30.125 88.3281 29.7891 88.5469 29.4609L88.7344 29.5547ZM98.4375 6.44531C98.4375 6.60156 98.4141 6.74219 98.3672 6.86719C98.3359 6.97656 98.2969 7.09375 98.25 7.21875C97.9844 7.84375 97.7031 8.46094 97.4062 9.07031C97.1094 9.66406 96.875 10.2969 96.7031 10.9688C96.125 13.3125 95.6875 15.6797 95.3906 18.0703C95.1094 20.4609 94.9219 22.8672 94.8281 25.2891C95.8438 25.5078 96.75 25.8672 97.5469 26.3672C98.3594 26.8672 99.1484 27.4609 99.9141 28.1484C101.398 27.5234 102.742 26.7422 103.945 25.8047C105.164 24.8672 106.203 23.7891 107.062 22.5703C107.922 21.3516 108.586 20 109.055 18.5156C109.523 17.0312 109.758 15.4453 109.758 13.7578C109.758 12.8203 109.617 11.8672 109.336 10.8984C109.07 9.91406 108.688 8.96094 108.188 8.03906C107.703 7.11719 107.117 6.25 106.43 5.4375C105.758 4.625 105.008 3.92187 104.18 3.32812C103.352 2.71875 102.461 2.24219 101.508 1.89844C100.57 1.53906 99.5938 1.35938 98.5781 1.35938C97.6094 1.35938 96.6016 1.53906 95.5547 1.89844C94.5234 2.25781 93.5781 2.76562 92.7188 3.42188C91.8594 4.0625 91.1562 4.83594 90.6094 5.74219C90.0625 6.64844 89.7891 7.64062 89.7891 8.71875C89.7891 9.14062 89.8359 9.52344 89.9297 9.86719C90.0391 10.1953 90.1484 10.5 90.2578 10.7812C90.3828 11.0625 90.4922 11.3281 90.5859 11.5781C90.6953 11.8125 90.75 12.0547 90.75 12.3047C90.75 12.7578 90.5938 13.1406 90.2812 13.4531C89.9844 13.75 89.6172 13.8984 89.1797 13.8984C88.7734 13.8984 88.4531 13.7891 88.2188 13.5703C87.9844 13.3516 87.7969 13.0781 87.6562 12.75C87.5312 12.4219 87.4453 12.0781 87.3984 11.7188C87.3672 11.3438 87.3516 11.0156 87.3516 10.7344C87.3516 9.35938 87.6797 8.11719 88.3359 7.00781C88.9922 5.89844 89.8359 4.89844 90.8672 4.00781C91.5234 3.44531 92.1797 2.95312 92.8359 2.53125C93.5078 2.10938 94.1953 1.75 94.8984 1.45312C95.6172 1.15625 96.3594 0.9375 97.125 0.796875C97.8906 0.640625 98.7109 0.5625 99.5859 0.5625C100.836 0.5625 102.039 0.71875 103.195 1.03125C104.367 1.34375 105.461 1.78906 106.477 2.36719C107.508 2.94531 108.445 3.64062 109.289 4.45312C110.148 5.26563 110.883 6.17188 111.492 7.17188C112.102 8.17188 112.57 9.25781 112.898 10.4297C113.242 11.5859 113.414 12.8047 113.414 14.0859C113.414 15.9766 113.07 17.7188 112.383 19.3125C111.711 20.9062 110.797 22.3359 109.641 23.6016C108.484 24.8516 107.141 25.9375 105.609 26.8594C104.078 27.7656 102.469 28.4766 100.781 28.9922C100.953 29.1641 101.117 29.3281 101.273 29.4844C101.445 29.6406 101.617 29.8047 101.789 29.9766C102.727 30.8984 103.656 31.875 104.578 32.9062C105.516 33.9375 106.477 34.9609 107.461 35.9766C108.445 36.9922 109.461 37.9609 110.508 38.8828C111.555 39.8203 112.664 40.6406 113.836 41.3438C115.008 42.0625 116.25 42.6328 117.562 43.0547C118.891 43.4766 120.312 43.6875 121.828 43.6875C122.094 43.6875 122.344 43.6719 122.578 43.6406C122.828 43.625 123.086 43.5781 123.352 43.5L123.469 43.9688C122.781 44.3281 122.055 44.5859 121.289 44.7422C120.523 44.8984 119.742 44.9766 118.945 44.9766C117.289 44.9766 115.781 44.8047 114.422 44.4609C113.062 44.1328 111.805 43.6641 110.648 43.0547C109.492 42.4453 108.422 41.7109 107.438 40.8516C106.453 40.0078 105.508 39.0781 104.602 38.0625C103.695 37.0469 102.805 35.9609 101.93 34.8047C101.07 33.6641 100.18 32.4844 99.2578 31.2656C99.0547 31 98.8516 30.7344 98.6484 30.4688C98.4609 30.1875 98.2734 29.9141 98.0859 29.6484C97.5234 29.7422 96.9609 29.8203 96.3984 29.8828C95.8516 29.9297 95.3047 29.9609 94.7578 29.9766C94.7578 31.8828 94.8047 33.7656 94.8984 35.625C94.9922 37.4844 95.1016 39.3125 95.2266 41.1094L94.7812 41.25C94.1406 39.5938 93.6484 37.7812 93.3047 35.8125C92.9766 33.8438 92.7266 31.8594 92.5547 29.8594C92.1484 29.7969 91.75 29.7109 91.3594 29.6016C90.9688 29.4922 90.6094 29.3438 90.2812 29.1562C89.9688 28.9531 89.7109 28.7109 89.5078 28.4297C89.3203 28.1328 89.2266 27.7812 89.2266 27.375C89.2266 27 89.3203 26.6797 89.5078 26.4141C89.6953 26.1328 89.9375 25.9062 90.2344 25.7344C90.5469 25.5469 90.8828 25.4062 91.2422 25.3125C91.6016 25.2031 91.9609 25.1328 92.3203 25.1016C92.3047 24.6641 92.2969 24.2344 92.2969 23.8125C92.2969 23.375 92.2969 22.9531 92.2969 22.5469C92.2969 21.9062 92.2969 21.1094 92.2969 20.1562C92.3125 19.2031 92.3516 18.1875 92.4141 17.1094C92.4922 16.0312 92.6094 14.9375 92.7656 13.8281C92.9219 12.7031 93.1328 11.6484 93.3984 10.6641C93.6797 9.67969 94.0312 8.80469 94.4531 8.03906C94.8906 7.27344 95.4219 6.71094 96.0469 6.35156C96.2812 6.21094 96.5391 6.08594 96.8203 5.97656C97.1016 5.85156 97.3984 5.78906 97.7109 5.78906C98.1953 5.78906 98.4375 6.00781 98.4375 6.44531ZM90.0469 27.4688C90.0469 27.6875 90.1172 27.8828 90.2578 28.0547C90.3984 28.2266 90.5859 28.3828 90.8203 28.5234C91.0547 28.6484 91.3125 28.7578 91.5938 28.8516C91.8906 28.9453 92.1953 29.0234 92.5078 29.0859C92.4766 28.5547 92.4453 28.0312 92.4141 27.5156C92.3984 26.9844 92.375 26.4609 92.3438 25.9453C92.0781 25.9453 91.8047 25.9609 91.5234 25.9922C91.2578 26.0234 91.0156 26.0938 90.7969 26.2031C90.5781 26.3125 90.3984 26.4688 90.2578 26.6719C90.1172 26.8594 90.0469 27.125 90.0469 27.4688ZM94.7578 29.2969C95.2422 29.2969 95.7188 29.2656 96.1875 29.2031C96.6562 29.1406 97.1172 29.0547 97.5703 28.9453C97.1797 28.4141 96.7578 27.9297 96.3047 27.4922C95.8672 27.0391 95.3594 26.6797 94.7812 26.4141C94.7656 26.8984 94.7578 27.3828 94.7578 27.8672C94.7578 28.3359 94.7578 28.8125 94.7578 29.2969ZM127.641 26.0859C127.641 27.1797 127.461 28.1953 127.102 29.1328C126.742 30.0703 126.234 30.8828 125.578 31.5703C124.922 32.2578 124.133 32.7969 123.211 33.1875C122.305 33.5781 121.297 33.7734 120.188 33.7734C119.203 33.7734 118.312 33.5859 117.516 33.2109C116.734 32.8516 116.062 32.3594 115.5 31.7344C114.938 31.1094 114.508 30.3828 114.211 29.5547C113.914 28.7109 113.766 27.8125 113.766 26.8594C113.766 26.0625 113.875 25.3047 114.094 24.5859C114.328 23.8672 114.648 23.2031 115.055 22.5938C115.461 21.9688 115.945 21.3984 116.508 20.8828C117.07 20.3516 117.68 19.875 118.336 19.4531L118.617 19.6641C117.961 20.4297 117.445 21.2734 117.07 22.1953C116.695 23.1172 116.508 24.0938 116.508 25.125C116.508 25.875 116.617 26.6406 116.836 27.4219C117.07 28.1875 117.406 28.8906 117.844 29.5312C118.281 30.1719 118.828 30.6953 119.484 31.1016C120.141 31.5078 120.891 31.7109 121.734 31.7109C122.266 31.7109 122.766 31.6016 123.234 31.3828C123.703 31.1641 124.109 30.8672 124.453 30.4922C124.812 30.1172 125.094 29.6953 125.297 29.2266C125.516 28.7422 125.625 28.2422 125.625 27.7266C125.625 27.2266 125.547 26.7422 125.391 26.2734C125.25 25.7891 125.047 25.3438 124.781 24.9375C124.516 24.5156 124.195 24.1406 123.82 23.8125C123.445 23.4688 123.039 23.1875 122.602 22.9688C122.352 22.8438 122.109 22.75 121.875 22.6875C121.656 22.625 121.414 22.5547 121.148 22.4766C121.039 22.4609 120.922 22.4375 120.797 22.4062C120.672 22.3594 120.555 22.3125 120.445 22.2656C120.336 22.2031 120.242 22.125 120.164 22.0312C120.086 21.9375 120.047 21.8203 120.047 21.6797C120.047 21.3984 120.148 21.1406 120.352 20.9062C120.555 20.6719 120.797 20.4688 121.078 20.2969C121.359 20.1094 121.656 19.9688 121.969 19.875C122.281 19.7656 122.555 19.7109 122.789 19.7109C123.586 19.7109 124.289 19.9141 124.898 20.3203C125.508 20.7266 126.016 21.2422 126.422 21.8672C126.828 22.4922 127.133 23.1797 127.336 23.9297C127.539 24.6797 127.641 25.3984 127.641 26.0859ZM143.156 26.0859C143.156 27.1797 142.977 28.1953 142.617 29.1328C142.258 30.0703 141.75 30.8828 141.094 31.5703C140.438 32.2578 139.648 32.7969 138.727 33.1875C137.82 33.5781 136.812 33.7734 135.703 33.7734C134.719 33.7734 133.828 33.5859 133.031 33.2109C132.25 32.8516 131.578 32.3594 131.016 31.7344C130.453 31.1094 130.023 30.3828 129.727 29.5547C129.43 28.7109 129.281 27.8125 129.281 26.8594C129.281 26.0625 129.391 25.3047 129.609 24.5859C129.844 23.8672 130.164 23.2031 130.57 22.5938C130.977 21.9688 131.461 21.3984 132.023 20.8828C132.586 20.3516 133.195 19.875 133.852 19.4531L134.133 19.6641C133.477 20.4297 132.961 21.2734 132.586 22.1953C132.211 23.1172 132.023 24.0938 132.023 25.125C132.023 25.875 132.133 26.6406 132.352 27.4219C132.586 28.1875 132.922 28.8906 133.359 29.5312C133.797 30.1719 134.344 30.6953 135 31.1016C135.656 31.5078 136.406 31.7109 137.25 31.7109C137.781 31.7109 138.281 31.6016 138.75 31.3828C139.219 31.1641 139.625 30.8672 139.969 30.4922C140.328 30.1172 140.609 29.6953 140.812 29.2266C141.031 28.7422 141.141 28.2422 141.141 27.7266C141.141 27.2266 141.062 26.7422 140.906 26.2734C140.766 25.7891 140.562 25.3438 140.297 24.9375C140.031 24.5156 139.711 24.1406 139.336 23.8125C138.961 23.4688 138.555 23.1875 138.117 22.9688C137.867 22.8438 137.625 22.75 137.391 22.6875C137.172 22.625 136.93 22.5547 136.664 22.4766C136.555 22.4609 136.438 22.4375 136.312 22.4062C136.188 22.3594 136.07 22.3125 135.961 22.2656C135.852 22.2031 135.758 22.125 135.68 22.0312C135.602 21.9375 135.562 21.8203 135.562 21.6797C135.562 21.3984 135.664 21.1406 135.867 20.9062C136.07 20.6719 136.312 20.4688 136.594 20.2969C136.875 20.1094 137.172 19.9688 137.484 19.875C137.797 19.7656 138.07 19.7109 138.305 19.7109C139.102 19.7109 139.805 19.9141 140.414 20.3203C141.023 20.7266 141.531 21.2422 141.938 21.8672C142.344 22.4922 142.648 23.1797 142.852 23.9297C143.055 24.6797 143.156 25.3984 143.156 26.0859ZM172.898 29.6484C172.617 30.2109 172.281 30.7578 171.891 31.2891C171.5 31.8047 171.062 32.2656 170.578 32.6719C170.094 33.0781 169.555 33.3984 168.961 33.6328C168.383 33.8828 167.75 34.0078 167.062 34.0078C166.094 34.0078 165.305 33.6797 164.695 33.0234C164.086 32.3672 163.586 31.5156 163.195 30.4688C162.82 29.4062 162.523 28.2109 162.305 26.8828C162.086 25.5391 161.898 24.1875 161.742 22.8281C161.383 23.4688 161.047 24.1406 160.734 24.8438C160.438 25.5312 160.148 26.2578 159.867 27.0234C159.586 27.7891 159.305 28.5781 159.023 29.3906C158.742 30.2031 158.438 31.0391 158.109 31.8984C158.031 32.0859 157.945 32.2969 157.852 32.5312C157.758 32.75 157.633 32.9609 157.477 33.1641C157.336 33.3828 157.164 33.5625 156.961 33.7031C156.758 33.8438 156.516 33.9141 156.234 33.9141C156.031 33.9141 155.852 33.8672 155.695 33.7734C155.539 33.6797 155.398 33.5625 155.273 33.4219C155.164 33.2969 155.062 33.1562 154.969 33C154.891 32.8281 154.82 32.6719 154.758 32.5312C154.445 31.8281 154.195 31.1094 154.008 30.375C153.82 29.6406 153.656 28.8828 153.516 28.1016C153.391 27.3203 153.281 26.4922 153.188 25.6172C153.094 24.7422 153 23.8125 152.906 22.8281C152.578 23.5938 152.281 24.3281 152.016 25.0312C151.766 25.7188 151.516 26.4141 151.266 27.1172C151.031 27.8047 150.789 28.5234 150.539 29.2734C150.305 30.0078 150.055 30.8047 149.789 31.6641C149.727 31.8672 149.656 32.0859 149.578 32.3203C149.516 32.5391 149.43 32.7422 149.32 32.9297C149.227 33.1172 149.094 33.2734 148.922 33.3984C148.766 33.5234 148.562 33.5859 148.312 33.5859C147.906 33.5859 147.609 33.4531 147.422 33.1875C147.234 32.9375 147.078 32.6406 146.953 32.2969C146.766 31.8281 146.586 31.1797 146.414 30.3516C146.242 29.5078 146.086 28.5938 145.945 27.6094C145.805 26.625 145.695 25.6094 145.617 24.5625C145.539 23.5156 145.5 22.5391 145.5 21.6328C145.5 20.7578 145.734 20.1172 146.203 19.7109C146.672 19.2891 147.289 19.0781 148.055 19.0781C148.102 19.0781 148.172 19.0781 148.266 19.0781C148.359 19.0781 148.453 19.0938 148.547 19.125C148.641 19.1406 148.719 19.1719 148.781 19.2188C148.859 19.2656 148.891 19.3281 148.875 19.4062C148.734 20.5 148.641 21.5391 148.594 22.5234C148.547 23.5078 148.531 24.4688 148.547 25.4062C148.562 26.3281 148.609 27.2422 148.688 28.1484C148.781 29.0391 148.898 29.9531 149.039 30.8906C149.305 30 149.562 29.1484 149.812 28.3359C150.078 27.5234 150.352 26.7188 150.633 25.9219C150.914 25.125 151.211 24.3203 151.523 23.5078C151.852 22.6797 152.203 21.8125 152.578 20.9062C152.781 20.4375 152.992 20.1094 153.211 19.9219C153.445 19.7344 153.742 19.6406 154.102 19.6406C154.555 19.6406 154.906 19.8125 155.156 20.1562C155.422 20.5 155.594 20.8906 155.672 21.3281C155.797 22.125 155.906 22.9453 156 23.7891C156.094 24.6172 156.195 25.4531 156.305 26.2969C156.414 27.1406 156.547 27.9766 156.703 28.8047C156.859 29.6172 157.062 30.4062 157.312 31.1719C157.625 30.3594 157.938 29.5156 158.25 28.6406C158.562 27.75 158.883 26.8594 159.211 25.9688C159.539 25.0781 159.883 24.2031 160.242 23.3438C160.617 22.4844 161.016 21.6719 161.438 20.9062C161.641 20.5469 161.867 20.25 162.117 20.0156C162.383 19.7656 162.711 19.6406 163.102 19.6406C163.32 19.6406 163.516 19.6953 163.688 19.8047C163.859 19.8984 164.008 20.0312 164.133 20.2031C164.258 20.3594 164.359 20.5391 164.438 20.7422C164.516 20.9297 164.57 21.125 164.602 21.3281C164.68 21.7812 164.75 22.3672 164.812 23.0859C164.891 23.8047 164.984 24.5703 165.094 25.3828C165.219 26.1953 165.367 27.0156 165.539 27.8438C165.711 28.6562 165.93 29.3984 166.195 30.0703C166.461 30.7266 166.781 31.2656 167.156 31.6875C167.531 32.1094 167.984 32.3203 168.516 32.3203C168.953 32.3203 169.375 32.2422 169.781 32.0859C170.188 31.9141 170.57 31.7031 170.93 31.4531C171.289 31.1875 171.617 30.8906 171.914 30.5625C172.227 30.2188 172.508 29.8828 172.758 29.5547L172.898 29.6484Z" fill="#FF4F5A"/>
</svg>
